# xmcd
#
# Track frame offsets:
#	182
#	8407
#	18497
#	31447
#	44667
#	55415
#	67162
#	80665
#	91687
#	101292
#	109815
#	119290
#	129002
#	142142
#	151637
#
# Disc length: 2193 seconds
#
# Revision: 5
# Processed by: cddbd v1.5PL3 Copyright (c) Steve Scherf et al.
# Submitted via: dBpowerAMP V4.0
#
DISCID=bc088f0f
DTITLE=TheBeeGees,Brisbane,Australia - TheMagicCollection;MCPS,ARC,Holland713051-490448
DYEAR=2000
DGENRE=Oldies
TTITLE0=ThreeKissesOfLove(Gibb;TheBeeGees,Brisbane,Australia)
TTITLE1=Claustrophobia(Gibb;TheBeeGees,Brisbane,Australia)
TTITLE2=SpicksAndSpecks(Gibb;TheBeeGees,Brisbane,Australia)
TTITLE3=IDon'tThinkIt'sFunny(Gibb;TheBeeGees,Brisbane,Australia)
TTITLE4=TurnAroundAndLookAtMe(Gibb;TheBeeGees,Brisbane,Australia)
TTITLE5=IAmTheWorld(Gibb;TheBeeGees,Brisbane,Australia)
TTITLE6=Monday'sRain(Gibb;TheBeeGees,Brisbane,Australia)
TTITLE7=IWantHome(Gibb;TheBeeGees,Brisbane,Australia)
TTITLE8=YouWouldn'tKnow(Gibb;TheBeeGees,Brisbane,Australia)
TTITLE9=JamieMcPheeters[Theme](Gibb;TheBeeGees,Brisbane,Australia)
TTITLE10=CouldItBeI'mInLove(Gibb;TheBeeGees,Brisbane,Australia)
TTITLE11=EverydayIHaveToCry(Gibb;TheBeeGees,Brisbane,Australia)
TTITLE12=InTheMorningOfMyLife(Gibb;TheBeeGees,Brisbane,Australia)
TTITLE13=BattleOfTheBlueAndGrey,The(Gibb;TheBeeGees,Brisbane,Australia)
TTITLE14=WineAndWomen(Gibb;TheBeeGees,Brisbane,Australia)
EXTD=more info
EXTT0=
EXTT1=
EXTT2=
EXTT3=
EXTT4=
EXTT5=
EXTT6=
EXTT7=
EXTT8=
EXTT9=
EXTT10=
EXTT11=
EXTT12=
EXTT13=
EXTT14=
PLAYORDER=
